<svg width="348" height="98" viewBox="0 0 348 98" fill="none" xmlns="http://www.w3.org/2000/svg">
<path d="M346.956 54.3988C346.244 42.0533 345.295 26.6003 337.824 16.6903C318.731 -8.58865 238.799 3.00104 208.439 4.09282C175.589 5.26859 142.738 6.61232 109.888 8.29199C81.7815 9.63572 48.9311 8.29199 21.7733 13.5829C2.324 17.3622 -0.996592 30.8835 1.25668 43.229C3.50995 55.9945 3.15421 92.0233 26.8728 94.0389C91.1504 99.5818 156.021 96.5584 220.417 94.5428C261.094 93.283 350.632 106.972 347.43 60.6136C347.074 58.598 346.956 56.4984 346.956 54.3988Z" fill="#203A61"/>
<path d="M58.05 67L68.05 32H77.55L87.5 67H81.95L79.65 58.75H65.95L63.65 67H58.05ZM67.3 53.75H78.3L73.2 35.35H72.4L67.3 53.75ZM90.9418 67V62.2H95.6418V36.8H90.9418V32H108.692C110.792 32 112.625 32.3667 114.192 33.1C115.758 33.8 116.975 34.8167 117.842 36.15C118.742 37.45 119.192 39 119.192 40.8V41.3C119.192 42.9 118.892 44.2167 118.292 45.25C117.692 46.2833 116.958 47.0833 116.092 47.65C115.258 48.2167 114.458 48.6167 113.692 48.85V49.65C114.458 49.85 115.275 50.25 116.142 50.85C117.042 51.4167 117.792 52.2167 118.392 53.25C119.025 54.2833 119.342 55.6333 119.342 57.3V57.8C119.342 59.7333 118.892 61.3833 117.992 62.75C117.092 64.1167 115.842 65.1667 114.242 65.9C112.675 66.6333 110.858 67 108.792 67H90.9418ZM101.092 62.1H108.142C109.942 62.1 111.358 61.6667 112.392 60.8C113.425 59.9333 113.942 58.7333 113.942 57.2V56.75C113.942 55.2167 113.425 54.0167 112.392 53.15C111.392 52.2833 109.975 51.85 108.142 51.85H101.092V62.1ZM101.092 46.9H108.142C109.842 46.9 111.208 46.4833 112.242 45.65C113.275 44.7833 113.792 43.6167 113.792 42.15V41.65C113.792 40.1833 113.275 39.0333 112.242 38.2C111.242 37.3333 109.875 36.9 108.142 36.9H101.092V46.9ZM138.546 67.7C134.246 67.7 130.829 66.5 128.296 64.1C125.763 61.6667 124.496 58.1667 124.496 53.6V45.4C124.496 40.8333 125.763 37.35 128.296 34.95C130.829 32.5167 134.246 31.3 138.546 31.3C142.846 31.3 146.263 32.5167 148.796 34.95C151.363 37.35 152.646 40.8333 152.646 45.4V53.6C152.646 58.1667 151.363 61.6667 148.796 64.1C146.263 66.5 142.846 67.7 138.546 67.7ZM138.546 62.85C141.313 62.85 143.446 62.05 144.946 60.45C146.446 58.8167 147.196 56.6 147.196 53.8V45.2C147.196 42.4 146.446 40.2 144.946 38.6C143.446 36.9667 141.313 36.15 138.546 36.15C135.846 36.15 133.729 36.9667 132.196 38.6C130.663 40.2 129.896 42.4 129.896 45.2V53.8C129.896 56.6 130.663 58.8167 132.196 60.45C133.729 62.05 135.846 62.85 138.546 62.85ZM172.139 67.7C169.372 67.7 166.989 67.2 164.989 66.2C163.022 65.2 161.489 63.7667 160.389 61.9C159.322 60 158.789 57.7 158.789 55V32H164.239V55.15C164.239 57.6167 164.922 59.5167 166.289 60.85C167.655 62.1833 169.605 62.85 172.139 62.85C174.672 62.85 176.622 62.1833 177.989 60.85C179.355 59.5167 180.039 57.6167 180.039 55.15V32H185.439V55C185.439 57.7 184.905 60 183.839 61.9C182.772 63.7667 181.239 65.2 179.239 66.2C177.239 67.2 174.872 67.7 172.139 67.7ZM200.836 67V36.9H190.086V32H216.986V36.9H206.236V67H200.836ZM246.309 67.7C243.542 67.7 241.159 67.2 239.159 66.2C237.192 65.2 235.659 63.7667 234.559 61.9C233.492 60 232.959 57.7 232.959 55V32H238.409V55.15C238.409 57.6167 239.092 59.5167 240.459 60.85C241.825 62.1833 243.775 62.85 246.309 62.85C248.842 62.85 250.792 62.1833 252.159 60.85C253.525 59.5167 254.209 57.6167 254.209 55.15V32H259.609V55C259.609 57.7 259.075 60 258.009 61.9C256.942 63.7667 255.409 65.2 253.409 66.2C251.409 67.2 249.042 67.7 246.309 67.7ZM278.556 67.7C275.923 67.7 273.589 67.2333 271.556 66.3C269.523 65.3667 267.923 64 266.756 62.2C265.623 60.3667 265.056 58.15 265.056 55.55V54.3H270.406V55.55C270.406 58.0167 271.139 59.8667 272.606 61.1C274.106 62.3333 276.089 62.95 278.556 62.95C281.056 62.95 282.939 62.4333 284.206 61.4C285.473 60.3333 286.106 58.9667 286.106 57.3C286.106 56.2 285.806 55.3 285.206 54.6C284.606 53.9 283.756 53.35 282.656 52.95C281.556 52.5167 280.239 52.1167 278.706 51.75L276.856 51.3C274.623 50.7667 272.673 50.1167 271.006 49.35C269.373 48.55 268.106 47.5 267.206 46.2C266.306 44.9 265.856 43.2333 265.856 41.2C265.856 39.1333 266.356 37.3667 267.356 35.9C268.389 34.4333 269.806 33.3 271.606 32.5C273.406 31.7 275.523 31.3 277.956 31.3C280.389 31.3 282.556 31.7167 284.456 32.55C286.389 33.3833 287.906 34.6167 289.006 36.25C290.106 37.8833 290.656 39.9333 290.656 42.4V44.2H285.306V42.4C285.306 40.9 284.989 39.6833 284.356 38.75C283.756 37.8167 282.906 37.1333 281.806 36.7C280.706 36.2667 279.423 36.05 277.956 36.05C275.823 36.05 274.156 36.5 272.956 37.4C271.789 38.2667 271.206 39.4833 271.206 41.05C271.206 42.1167 271.456 43 271.956 43.7C272.489 44.3667 273.256 44.9167 274.256 45.35C275.256 45.7833 276.506 46.1667 278.006 46.5L279.856 46.95C282.123 47.45 284.123 48.1 285.856 48.9C287.589 49.6667 288.956 50.7167 289.956 52.05C290.956 53.3833 291.456 55.1 291.456 57.2C291.456 59.3 290.923 61.1333 289.856 62.7C288.823 64.2667 287.339 65.5 285.406 66.4C283.473 67.2667 281.189 67.7 278.556 67.7Z" fill="white"/>
</svg>
