<svg width="385" height="99" viewBox="0 0 385 99" fill="none" xmlns="http://www.w3.org/2000/svg">
<path d="M352.432 54.7574C351.708 42.2155 350.742 26.5167 343.139 16.449C323.708 -9.23211 242.364 2.54196 211.468 3.65111C178.037 4.84558 144.607 6.21069 111.176 7.91708C82.5727 9.28219 49.1419 7.91708 21.5043 13.2922C1.71138 17.1316 -1.66788 30.868 0.625199 43.4099C2.91828 56.3785 2.55626 92.9805 26.694 95.0281C92.1071 100.659 158.124 97.5877 223.657 95.5401C265.054 94.2603 356.173 108.167 352.915 61.071C352.553 59.0234 352.432 56.8904 352.432 54.7574Z" fill="#203A61"/>
<path d="M50.65 66V31H56.05V46H70.75V31H76.15V66H70.75V50.9H56.05V66H50.65ZM83.4625 66V31H88.8625V66H83.4625ZM108.308 66.7C105.808 66.7 103.574 66.1667 101.608 65.1C99.6411 64 98.0911 62.4 96.9578 60.3C95.8245 58.2 95.2578 55.6333 95.2578 52.6V44.4C95.2578 39.8333 96.5078 36.35 99.0078 33.95C101.508 31.5167 104.891 30.3 109.158 30.3C113.358 30.3 116.591 31.45 118.858 33.75C121.124 36.0167 122.258 39.0667 122.258 42.9V43.15H116.908V42.75C116.908 41.3167 116.624 40.0333 116.058 38.9C115.491 37.7333 114.641 36.8167 113.508 36.15C112.374 35.4833 110.924 35.15 109.158 35.15C106.491 35.15 104.408 35.9667 102.908 37.6C101.408 39.2 100.658 41.4333 100.658 44.3V52.7C100.658 55.5333 101.408 57.7833 102.908 59.45C104.408 61.0833 106.508 61.9 109.208 61.9C111.874 61.9 113.824 61.1667 115.058 59.7C116.291 58.2333 116.908 56.3333 116.908 54V53.35H107.508V48.7H122.258V66H117.258V62.45H116.458C116.158 63.0833 115.708 63.7333 115.108 64.4C114.541 65.0667 113.708 65.6167 112.608 66.05C111.541 66.4833 110.108 66.7 108.308 66.7ZM129.214 66V31H134.614V46H149.314V31H154.714V66H149.314V50.9H134.614V66H129.214ZM162.027 66V31H167.427V61.1H184.277V66H162.027ZM189.224 66V31H194.624V66H189.224ZM214.07 66.7C211.57 66.7 209.336 66.1667 207.37 65.1C205.403 64 203.853 62.4 202.72 60.3C201.586 58.2 201.02 55.6333 201.02 52.6V44.4C201.02 39.8333 202.27 36.35 204.77 33.95C207.27 31.5167 210.653 30.3 214.92 30.3C219.12 30.3 222.353 31.45 224.62 33.75C226.886 36.0167 228.02 39.0667 228.02 42.9V43.15H222.67V42.75C222.67 41.3167 222.386 40.0333 221.82 38.9C221.253 37.7333 220.403 36.8167 219.27 36.15C218.136 35.4833 216.686 35.15 214.92 35.15C212.253 35.15 210.17 35.9667 208.67 37.6C207.17 39.2 206.42 41.4333 206.42 44.3V52.7C206.42 55.5333 207.17 57.7833 208.67 59.45C210.17 61.0833 212.27 61.9 214.97 61.9C217.636 61.9 219.586 61.1667 220.82 59.7C222.053 58.2333 222.67 56.3333 222.67 54V53.35H213.27V48.7H228.02V66H223.02V62.45H222.22C221.92 63.0833 221.47 63.7333 220.87 64.4C220.303 65.0667 219.47 65.6167 218.37 66.05C217.303 66.4833 215.87 66.7 214.07 66.7ZM234.976 66V31H240.376V46H255.076V31H260.476V66H255.076V50.9H240.376V66H234.976ZM276.139 66V35.9H265.389V31H292.289V35.9H281.539V66H276.139ZM308.302 66.7C305.669 66.7 303.335 66.2333 301.302 65.3C299.269 64.3667 297.669 63 296.502 61.2C295.369 59.3667 294.802 57.15 294.802 54.55V53.3H300.152V54.55C300.152 57.0167 300.885 58.8667 302.352 60.1C303.852 61.3333 305.835 61.95 308.302 61.95C310.802 61.95 312.685 61.4333 313.952 60.4C315.219 59.3333 315.852 57.9667 315.852 56.3C315.852 55.2 315.552 54.3 314.952 53.6C314.352 52.9 313.502 52.35 312.402 51.95C311.302 51.5167 309.985 51.1167 308.452 50.75L306.602 50.3C304.369 49.7667 302.419 49.1167 300.752 48.35C299.119 47.55 297.852 46.5 296.952 45.2C296.052 43.9 295.602 42.2333 295.602 40.2C295.602 38.1333 296.102 36.3667 297.102 34.9C298.135 33.4333 299.552 32.3 301.352 31.5C303.152 30.7 305.269 30.3 307.702 30.3C310.135 30.3 312.302 30.7167 314.202 31.55C316.135 32.3833 317.652 33.6167 318.752 35.25C319.852 36.8833 320.402 38.9333 320.402 41.4V43.2H315.052V41.4C315.052 39.9 314.735 38.6833 314.102 37.75C313.502 36.8167 312.652 36.1333 311.552 35.7C310.452 35.2667 309.169 35.05 307.702 35.05C305.569 35.05 303.902 35.5 302.702 36.4C301.535 37.2667 300.952 38.4833 300.952 40.05C300.952 41.1167 301.202 42 301.702 42.7C302.235 43.3667 303.002 43.9167 304.002 44.35C305.002 44.7833 306.252 45.1667 307.752 45.5L309.602 45.95C311.869 46.45 313.869 47.1 315.602 47.9C317.335 48.6667 318.702 49.7167 319.702 51.05C320.702 52.3833 321.202 54.1 321.202 56.2C321.202 58.3 320.669 60.1333 319.602 61.7C318.569 63.2667 317.085 64.5 315.152 65.4C313.219 66.2667 310.935 66.7 308.302 66.7Z" fill="white"/>
</svg>
