<svg width="483" height="142" viewBox="0 0 483 142" fill="none" xmlns="http://www.w3.org/2000/svg">
<path d="M366.015 54.6243C365.263 42.1129 364.26 26.4523 356.364 16.409C336.184 -9.20967 251.705 2.53578 219.618 3.64224C184.899 4.83381 150.18 6.1956 115.461 7.89784C85.7551 9.25963 51.0359 7.89784 22.3331 13.2599C1.77734 17.0899 -1.73216 30.793 0.649295 43.3044C3.03075 56.2415 2.65478 92.7545 27.7228 94.7972C95.657 100.415 164.218 97.3506 232.277 95.3079C275.269 94.0312 369.901 107.904 366.517 60.9226C366.141 58.8799 366.015 56.7521 366.015 54.6243Z" fill="#203A61"/>
<path d="M109.85 67.7C106.35 67.7 103.567 66.7333 101.5 64.8C99.4334 62.8333 98.4001 60.0667 98.4001 56.5V53.5H103.8V56.5C103.8 58.3667 104.3 59.8667 105.3 61C106.333 62.1 107.817 62.65 109.75 62.65C111.617 62.65 113 62.1 113.9 61C114.8 59.9 115.25 58.4 115.25 56.5V36.9H109.15V32H124.55V36.9H120.65V56.5C120.65 60.1333 119.7 62.9167 117.8 64.85C115.933 66.75 113.283 67.7 109.85 67.7ZM142.697 67.7C138.397 67.7 134.98 66.5 132.447 64.1C129.914 61.6667 128.647 58.1667 128.647 53.6V45.4C128.647 40.8333 129.914 37.35 132.447 34.95C134.98 32.5167 138.397 31.3 142.697 31.3C146.997 31.3 150.414 32.5167 152.947 34.95C155.514 37.35 156.797 40.8333 156.797 45.4V53.6C156.797 58.1667 155.514 61.6667 152.947 64.1C150.414 66.5 146.997 67.7 142.697 67.7ZM142.697 62.85C145.464 62.85 147.597 62.05 149.097 60.45C150.597 58.8167 151.347 56.6 151.347 53.8V45.2C151.347 42.4 150.597 40.2 149.097 38.6C147.597 36.9667 145.464 36.15 142.697 36.15C139.997 36.15 137.88 36.9667 136.347 38.6C134.814 40.2 134.047 42.4 134.047 45.2V53.8C134.047 56.6 134.814 58.8167 136.347 60.45C137.88 62.05 139.997 62.85 142.697 62.85ZM163.19 67V32H168.59V67H163.19ZM175.885 67V32H186.285L195.785 63.4H196.585V32H201.935V67H191.535L182.035 35.55H181.235V67H175.885ZM235.079 67.7C232.312 67.7 229.929 67.2 227.929 66.2C225.962 65.2 224.429 63.7667 223.329 61.9C222.262 60 221.729 57.7 221.729 55V32H227.179V55.15C227.179 57.6167 227.862 59.5167 229.229 60.85C230.595 62.1833 232.545 62.85 235.079 62.85C237.612 62.85 239.562 62.1833 240.929 60.85C242.295 59.5167 242.979 57.6167 242.979 55.15V32H248.379V55C248.379 57.7 247.845 60 246.779 61.9C245.712 63.7667 244.179 65.2 242.179 66.2C240.179 67.2 237.812 67.7 235.079 67.7ZM267.326 67.7C264.693 67.7 262.359 67.2333 260.326 66.3C258.293 65.3667 256.693 64 255.526 62.2C254.393 60.3667 253.826 58.15 253.826 55.55V54.3H259.176V55.55C259.176 58.0167 259.909 59.8667 261.376 61.1C262.876 62.3333 264.859 62.95 267.326 62.95C269.826 62.95 271.709 62.4333 272.976 61.4C274.243 60.3333 274.876 58.9667 274.876 57.3C274.876 56.2 274.576 55.3 273.976 54.6C273.376 53.9 272.526 53.35 271.426 52.95C270.326 52.5167 269.009 52.1167 267.476 51.75L265.626 51.3C263.393 50.7667 261.443 50.1167 259.776 49.35C258.143 48.55 256.876 47.5 255.976 46.2C255.076 44.9 254.626 43.2333 254.626 41.2C254.626 39.1333 255.126 37.3667 256.126 35.9C257.159 34.4333 258.576 33.3 260.376 32.5C262.176 31.7 264.293 31.3 266.726 31.3C269.159 31.3 271.326 31.7167 273.226 32.55C275.159 33.3833 276.676 34.6167 277.776 36.25C278.876 37.8833 279.426 39.9333 279.426 42.4V44.2H274.076V42.4C274.076 40.9 273.759 39.6833 273.126 38.75C272.526 37.8167 271.676 37.1333 270.576 36.7C269.476 36.2667 268.193 36.05 266.726 36.05C264.593 36.05 262.926 36.5 261.726 37.4C260.559 38.2667 259.976 39.4833 259.976 41.05C259.976 42.1167 260.226 43 260.726 43.7C261.259 44.3667 262.026 44.9167 263.026 45.35C264.026 45.7833 265.276 46.1667 266.776 46.5L268.626 46.95C270.893 47.45 272.893 48.1 274.626 48.9C276.359 49.6667 277.726 50.7167 278.726 52.05C279.726 53.3833 280.226 55.1 280.226 57.2C280.226 59.3 279.693 61.1333 278.626 62.7C277.593 64.2667 276.109 65.5 274.176 66.4C272.243 67.2667 269.959 67.7 267.326 67.7Z" fill="white"/>
</svg>
