<svg width="858" height="918" viewBox="0 0 858 918" fill="none" xmlns="http://www.w3.org/2000/svg">
<path d="M843.019 546.925C842.195 517.439 840.753 487.94 839.302 458.851C833.354 349.446 838.009 205.884 805.988 111.896C792.02 70.6748 767.877 62.8019 745.004 53.3184C640.669 8.97637 529.385 11.1475 422.528 8.49989C358.5 6.7494 294.617 7.8669 230.683 11.4391C174.994 14.7748 112.759 6.104 58.3832 35.2522C3.38115 64.7966 16.3907 191.129 16.8903 275.453C17.5887 419.127 19.3166 562.823 21.8681 706.536C22.9077 765.086 30.4948 884.757 70.638 886.007C168.418 889.283 268.171 906.516 365.556 899.142C437.152 893.684 508.773 886.999 580.437 888.091C620.391 888.518 817.943 967.147 832.028 855.297C844.242 754.05 846.016 649.719 843.019 546.925Z" fill="#FDC234"/>
</svg>
