<svg width="372" height="98" viewBox="0 0 372 98" fill="none" xmlns="http://www.w3.org/2000/svg">
<path d="M370.562 54.6243C369.801 42.1129 368.785 26.4523 360.791 16.409C340.36 -9.20967 254.832 2.53578 222.346 3.64224C187.196 4.83381 152.045 6.1956 116.895 7.89784C86.8204 9.25964 51.6699 7.89784 22.6105 13.2599C1.79942 17.0899 -1.75368 30.793 0.65736 43.3044C3.0684 56.2415 2.68776 92.7545 28.0671 94.7972C96.8453 100.415 166.258 97.3506 235.163 95.3079C278.689 94.0312 374.496 107.904 371.07 60.9226C370.689 58.8799 370.562 56.7521 370.562 54.6243Z" fill="#203A61"/>
<path d="M61.65 69.7C57.3833 69.7 54 68.5 51.5 66.1C49 63.6667 47.75 60.1667 47.75 55.6V47.4C47.75 42.8333 49 39.35 51.5 36.95C54 34.5167 57.3833 33.3 61.65 33.3C65.85 33.3 69.0833 34.4667 71.35 36.8C73.65 39.1333 74.8 42.3167 74.8 46.35V46.65H69.45V46.2C69.45 43.8333 68.8 41.9 67.5 40.4C66.2333 38.9 64.2833 38.15 61.65 38.15C58.9833 38.15 56.9 38.9667 55.4 40.6C53.9 42.2 53.15 44.4333 53.15 47.3V55.7C53.15 58.5333 53.9 60.7667 55.4 62.4C56.9 64.0333 58.9833 64.85 61.65 64.85C64.2833 64.85 66.2333 64.1 67.5 62.6C68.8 61.0667 69.45 59.1333 69.45 56.8V55.95H74.8V56.65C74.8 60.6833 73.65 63.8667 71.35 66.2C69.0833 68.5333 65.85 69.7 61.65 69.7ZM93.9289 69.7C89.6289 69.7 86.2122 68.5 83.6789 66.1C81.1456 63.6667 79.8789 60.1667 79.8789 55.6V47.4C79.8789 42.8333 81.1456 39.35 83.6789 36.95C86.2122 34.5167 89.6289 33.3 93.9289 33.3C98.2289 33.3 101.646 34.5167 104.179 36.95C106.746 39.35 108.029 42.8333 108.029 47.4V55.6C108.029 60.1667 106.746 63.6667 104.179 66.1C101.646 68.5 98.2289 69.7 93.9289 69.7ZM93.9289 64.85C96.6956 64.85 98.8289 64.05 100.329 62.45C101.829 60.8167 102.579 58.6 102.579 55.8V47.2C102.579 44.4 101.829 42.2 100.329 40.6C98.8289 38.9667 96.6956 38.15 93.9289 38.15C91.2289 38.15 89.1122 38.9667 87.5789 40.6C86.0456 42.2 85.2789 44.4 85.2789 47.2V55.8C85.2789 58.6 86.0456 60.8167 87.5789 62.45C89.1122 64.05 91.2289 64.85 93.9289 64.85ZM114.421 69V34H124.821L134.321 65.4H135.121V34H140.471V69H130.071L120.571 37.55H119.771V69H114.421ZM156.121 69V38.9H145.371V34H172.271V38.9H161.521V69H156.121ZM171.099 69L181.099 34H190.599L200.549 69H194.999L192.699 60.75H178.999L176.699 69H171.099ZM180.349 55.75H191.349L186.249 37.35H185.449L180.349 55.75ZM217.9 69.7C213.633 69.7 210.25 68.5 207.75 66.1C205.25 63.6667 204 60.1667 204 55.6V47.4C204 42.8333 205.25 39.35 207.75 36.95C210.25 34.5167 213.633 33.3 217.9 33.3C222.1 33.3 225.333 34.4667 227.6 36.8C229.9 39.1333 231.05 42.3167 231.05 46.35V46.65H225.7V46.2C225.7 43.8333 225.05 41.9 223.75 40.4C222.483 38.9 220.533 38.15 217.9 38.15C215.233 38.15 213.15 38.9667 211.65 40.6C210.15 42.2 209.4 44.4333 209.4 47.3V55.7C209.4 58.5333 210.15 60.7667 211.65 62.4C213.15 64.0333 215.233 64.85 217.9 64.85C220.533 64.85 222.483 64.1 223.75 62.6C225.05 61.0667 225.7 59.1333 225.7 56.8V55.95H231.05V56.65C231.05 60.6833 229.9 63.8667 227.6 66.2C225.333 68.5333 222.1 69.7 217.9 69.7ZM244.646 69V38.9H233.896V34H260.796V38.9H250.046V69H244.646ZM290.119 69.7C287.352 69.7 284.969 69.2 282.969 68.2C281.002 67.2 279.469 65.7667 278.369 63.9C277.302 62 276.769 59.7 276.769 57V34H282.219V57.15C282.219 59.6167 282.902 61.5167 284.269 62.85C285.636 64.1833 287.586 64.85 290.119 64.85C292.652 64.85 294.602 64.1833 295.969 62.85C297.336 61.5167 298.019 59.6167 298.019 57.15V34H303.419V57C303.419 59.7 302.886 62 301.819 63.9C300.752 65.7667 299.219 67.2 297.219 68.2C295.219 69.2 292.852 69.7 290.119 69.7ZM322.366 69.7C319.733 69.7 317.4 69.2333 315.366 68.3C313.333 67.3667 311.733 66 310.566 64.2C309.433 62.3667 308.866 60.15 308.866 57.55V56.3H314.216V57.55C314.216 60.0167 314.95 61.8667 316.416 63.1C317.916 64.3333 319.9 64.95 322.366 64.95C324.866 64.95 326.75 64.4333 328.016 63.4C329.283 62.3333 329.916 60.9667 329.916 59.3C329.916 58.2 329.616 57.3 329.016 56.6C328.416 55.9 327.566 55.35 326.466 54.95C325.366 54.5167 324.05 54.1167 322.516 53.75L320.666 53.3C318.433 52.7667 316.483 52.1167 314.816 51.35C313.183 50.55 311.916 49.5 311.016 48.2C310.116 46.9 309.666 45.2333 309.666 43.2C309.666 41.1333 310.166 39.3667 311.166 37.9C312.2 36.4333 313.616 35.3 315.416 34.5C317.216 33.7 319.333 33.3 321.766 33.3C324.2 33.3 326.366 33.7167 328.266 34.55C330.2 35.3833 331.716 36.6167 332.816 38.25C333.916 39.8833 334.466 41.9333 334.466 44.4V46.2H329.116V44.4C329.116 42.9 328.8 41.6833 328.166 40.75C327.566 39.8167 326.716 39.1333 325.616 38.7C324.516 38.2667 323.233 38.05 321.766 38.05C319.633 38.05 317.966 38.5 316.766 39.4C315.6 40.2667 315.016 41.4833 315.016 43.05C315.016 44.1167 315.266 45 315.766 45.7C316.3 46.3667 317.066 46.9167 318.066 47.35C319.066 47.7833 320.316 48.1667 321.816 48.5L323.666 48.95C325.933 49.45 327.933 50.1 329.666 50.9C331.4 51.6667 332.766 52.7167 333.766 54.05C334.766 55.3833 335.266 57.1 335.266 59.2C335.266 61.3 334.733 63.1333 333.666 64.7C332.633 66.2667 331.15 67.5 329.216 68.4C327.283 69.2667 325 69.7 322.366 69.7Z" fill="white"/>
</svg>
