<svg width="533" height="144" viewBox="0 0 533 144" fill="none" xmlns="http://www.w3.org/2000/svg">
<path d="M462.255 54.6243C461.305 42.1129 460.039 26.4523 450.066 16.409C424.58 -9.20967 317.888 2.53578 277.365 3.64224C233.516 4.83381 189.668 6.1956 145.82 7.89784C108.304 9.25963 64.4553 7.89784 28.2053 13.2599C2.24467 17.0899 -2.18762 30.793 0.82002 43.3044C3.82766 56.2415 3.35283 92.7545 35.0122 94.7972C120.809 100.415 207.397 97.3506 293.352 95.3079C347.648 94.0312 467.162 107.904 462.888 60.9226C462.413 58.8799 462.255 56.7521 462.255 54.6243Z" fill="#203A61"/>
<path d="M48.65 69V34H58.8L66.45 65.4H67.25L74.9 34H85.05V69H79.8V37.8H79L71.4 69H62.3L54.7 37.8H53.9V69H48.65ZM92.3512 69V34H114.401V38.9H97.7512V48.95H113.001V53.85H97.7512V64.1H114.651V69H92.3512ZM120.281 69V34H142.331V38.9H125.681V48.95H140.931V53.85H125.681V64.1H142.581V69H120.281ZM156.561 69V38.9H145.811V34H172.711V38.9H161.961V69H156.561ZM195.867 69V38.9H185.117V34H212.017V38.9H201.267V69H195.867ZM216.912 69V34H222.312V49H237.012V34H242.412V69H237.012V53.9H222.312V69H216.912ZM249.724 69V34H271.774V38.9H255.124V48.95H270.374V53.85H255.124V64.1H272.024V69H249.724ZM290.398 69V34H295.798V64.1H312.648V69H290.398ZM317.595 69V34H339.645V38.9H322.995V48.95H338.245V53.85H322.995V64.1H339.895V69H317.595ZM342.925 69L352.925 34H362.425L372.375 69H366.825L364.525 60.75H350.825L348.525 69H342.925ZM352.175 55.75H363.175L358.075 37.35H357.275L352.175 55.75ZM375.817 69V64.2H380.517V38.8H375.817V34H389.817C394.483 34 398.05 35.1833 400.517 37.55C403.017 39.9167 404.267 43.4833 404.267 48.25V54.8C404.267 59.5667 403.017 63.1333 400.517 65.5C398.05 67.8333 394.483 69 389.817 69H375.817ZM385.967 64.1H389.867C392.9 64.1 395.15 63.3333 396.617 61.8C398.083 60.2667 398.817 57.9833 398.817 54.95V48.05C398.817 44.9833 398.083 42.7 396.617 41.2C395.15 39.7 392.9 38.95 389.867 38.95H385.967V64.1ZM422.269 69.7C419.635 69.7 417.302 69.2333 415.269 68.3C413.235 67.3667 411.635 66 410.469 64.2C409.335 62.3667 408.769 60.15 408.769 57.55V56.3H414.119V57.55C414.119 60.0167 414.852 61.8667 416.319 63.1C417.819 64.3333 419.802 64.95 422.269 64.95C424.769 64.95 426.652 64.4333 427.919 63.4C429.185 62.3333 429.819 60.9667 429.819 59.3C429.819 58.2 429.519 57.3 428.919 56.6C428.319 55.9 427.469 55.35 426.369 54.95C425.269 54.5167 423.952 54.1167 422.419 53.75L420.569 53.3C418.335 52.7667 416.385 52.1167 414.719 51.35C413.085 50.55 411.819 49.5 410.919 48.2C410.019 46.9 409.569 45.2333 409.569 43.2C409.569 41.1333 410.069 39.3667 411.069 37.9C412.102 36.4333 413.519 35.3 415.319 34.5C417.119 33.7 419.235 33.3 421.669 33.3C424.102 33.3 426.269 33.7167 428.169 34.55C430.102 35.3833 431.619 36.6167 432.719 38.25C433.819 39.8833 434.369 41.9333 434.369 44.4V46.2H429.019V44.4C429.019 42.9 428.702 41.6833 428.069 40.75C427.469 39.8167 426.619 39.1333 425.519 38.7C424.419 38.2667 423.135 38.05 421.669 38.05C419.535 38.05 417.869 38.5 416.669 39.4C415.502 40.2667 414.919 41.4833 414.919 43.05C414.919 44.1167 415.169 45 415.669 45.7C416.202 46.3667 416.969 46.9167 417.969 47.35C418.969 47.7833 420.219 48.1667 421.719 48.5L423.569 48.95C425.835 49.45 427.835 50.1 429.569 50.9C431.302 51.6667 432.669 52.7167 433.669 54.05C434.669 55.3833 435.169 57.1 435.169 59.2C435.169 61.3 434.635 63.1333 433.569 64.7C432.535 66.2667 431.052 67.5 429.119 68.4C427.185 69.2667 424.902 69.7 422.269 69.7Z" fill="white"/>
</svg>
